<svg version="1" xmlns="http://www.w3.org/2000/svg" width="1365.333" height="1365.333" viewBox="0 0 1024.000000 1024.000000"><path d="M480.5 1c-92.8 6.5-176.3 34.7-252.2 85.1-29.1 19.3-51.4 37.8-78.3 64.8-20.9 20.9-30.2 31.5-45.9 52.1C18.9 314.8-16.2 458.6 7.6 598.5 19.8 669.6 46 735.5 86.3 796c19.4 29.1 37.4 50.9 64.1 77.6 20.5 20.5 35.9 33.9 56.9 49.6 95.5 71.3 216.9 107.3 336.2 99.8 99.9-6.3 193.2-40.4 273.5-99.8 66.3-49.2 119.8-113.8 156.1-188.7 42.9-88.5 59-186.9 46.8-285.5-15.2-122.8-73-233.6-165.7-317.6C781.6 65.5 687.1 20.7 590 6.1 557.4 1.2 510-1 480.5 1zM623 81.7c1.6.9 3.2 2.6 3.6 3.7.5 1.2 1.1 31.6 1.4 67.6l.5 65.5h6.5c7.3.1 12.7 1.5 18.4 4.8 3.5 2 4.2 3 6.3 9.7 1.5 5 2.3 10 2.3 15 0 7.5 0 7.5 3.3 8.9 1.7.8 4.8 2.5 6.7 3.8 1.9 1.3 4.3 2.3 5.2 2.3 1 0 1.8.4 1.8.9s.9 1.3 2.1 1.6c5.6 1.8 24.8 24.4 29.3 34.5 1.7 3.7 3.7 7.2 4.7 8 .4.3 1.2 3.5 1.8 7.3.6 3.7 1.7 8 2.3 9.5 2.5 6 3.1 19.8 3.4 87.9.3 39.2.7 71.3 1 71.3.3 0 1.2-.7 2-1.5 4.7-4.7 12.5.9 16.2 11.7 1.8 5.5 2.2 8.7 2.2 19.6 0 7.7-.4 13.3-1 13.7-.6.3-1 1.5-1 2.6 0 1-.4 2.7-.9 3.7-.5.9-1.4 2.9-2.2 4.5-2.3 5-9.4 7.1-13.7 4.2l-2.1-1.6-.5 70.3c-.4 68.9-.8 81.3-2.6 85.3-.5 1.1-1.1 3.1-1.4 4.5-2.3 10.8-3.3 14.1-5.8 18.3-1.5 2.6-2.8 5.6-2.8 6.7 0 1-.6 2.5-1.2 3.2-2.4 2.5-6.8 8.7-6.8 9.5 0 1.2-15.7 16.3-16.9 16.3-.5 0-1.3.6-1.9 1.2-.6.7-5.3 3.5-10.6 6.3l-9.6 5v10.8c0 12-1 14.9-7.3 22.2l-3.5 4-11.3.5-11.4.5-.1 66.8-.1 66.8-2.2 2.2-2.2 2.2-122.2.3-122.2.4-2.4-2.6-2.4-2.6-.1-66.7-.1-66.8-10.5-.5c-11.5-.6-15.5-2-18.8-6.7-4.5-6.4-5.4-9.6-6.1-20.7l-.6-11.1-4.4-2.2c-2.5-1.3-4.9-2.7-5.5-3.3-.5-.5-1.6-1-2.3-1-3.9 0-28.3-23.8-28.3-27.5 0-.8-.6-1.8-1.3-2.2-1.6-1-5.7-7.6-5.7-9.3 0-1.1-2.2-6.6-4.1-10.2-.5-1-.9-2.5-.9-3.3 0-.8-.4-2.3-.9-3.3-.5-.9-1.6-6.4-2.3-12.2-1.9-15.1-1.9-344.9 0-359 1.3-9.9 3-16.8 4.4-18.4.4-.6.8-1.9.8-3 0-1.2.7-3 1.5-4 .8-1.1 1.5-3 1.5-4.2 0-1.2.4-2.4.8-2.6 1.1-.4 7.2-9.4 7.2-10.5 0-1.1 17.9-19.3 19-19.3.4 0 3-1.8 5.6-4 2.7-2.2 5.5-4 6.4-4.1.8 0 3.3-1 5.5-2.2l4-2.2.3-10c.2-5.5.7-11.6 1.3-13.6 2.6-10.1 10-15 23.4-15.5 4.7-.1 8.9-.5 9.5-.9.7-.4 1-23.3 1-67.9V83.4l3.3-1.7c2.9-1.4 14.7-1.6 122-1.6 109.4-.1 119.1 0 121.7 1.6z"/><path d="M363 275.4c-12.6 3.3-16.1 4.4-17 5.6-.3.3-2.1 1.3-4 2.2-3.5 1.7-20.5 18.4-22.7 22.5-2.8 5-3.3 5.9-4.6 9.3-7.8 19.2-7.2 3.4-7.2 200 0 187.6-.1 182.5 4.6 190.8 1 1.8 1.9 3.8 1.9 4.4 0 3.2 6 12.5 12.4 19.2 3.9 4.2 7.5 7.6 8 7.6.4 0 1.9.9 3.3 2s3.3 2 4.1 2c.9 0 2.3.7 3.2 1.5.9.8 4.3 2.2 7.6 3 3.2.9 6.8 1.9 7.9 2.4 1.1.6 3.6 1.3 5.5 1.7 4.8 1 267.5 1.1 272.5.1 3.9-.8 7.1-2 10.7-3.8 1-.5 3-.9 4.6-.9 1.5 0 3.3-.5 3.9-1.1 1.2-1.2 2.6-2 9-5.6 5.9-3.3 20.3-18.2 20.3-21.1 0-.7 1.1-3 2.5-5.2s2.5-4.6 2.5-5.3c0-.7.4-1.7 1-2.3.5-.5 1.2-3.2 1.5-5.9.4-2.8 1-6.6 1.6-8.5.6-2.1 1.1-59.4 1.4-147.5.3-79.2.6-155 .7-168.5.2-24.4-.4-35.8-2.1-41.5-.5-1.7-1.2-5.5-1.6-8.5-.7-5.9-8.4-21.6-11.1-22.7-.8-.3-1.4-1.1-1.4-1.8 0-2.3-12.1-13.5-14.6-13.5-1.2 0-2.7-.7-3.2-1.6-1.9-3.3-17.9-7.9-39.3-11.4-4.4-.6-47.7-1-128-.9l-121.4.1-12.5 3.2z"/></svg>